<svg width="41" height="41" viewBox="0 0 41 41" fill="none" xmlns="http://www.w3.org/2000/svg">
<g clip-path="url(#clip0_1_3)">
<path d="M17.6977 10.4457C20.0615 8.07527 23.9181 8.07527 26.2882 10.4457L39.2225 23.3732C41.5927 25.7437 41.5927 29.6002 39.2225 31.9703L38.6076 32.5853L31.9706 39.2223C29.6004 41.5925 25.7439 41.5925 23.3735 39.2223L15.8913 31.7464L10.4394 26.2945C8.07556 23.9243 8.07556 20.0679 10.4394 17.6975L17.6977 10.4457ZM12.7842 23.9497L17.6273 28.7928H37.4543C37.9029 27.7744 37.7105 26.5444 36.8841 25.7114L34.0526 22.88L30.6574 26.2754C30.4654 26.4675 30.1513 26.4675 29.9593 26.2754C29.7606 26.0831 29.7606 25.7693 29.9593 25.5707L33.3482 22.1818L30.4175 19.2511L30.4141 19.2477L27.0252 22.6432C26.8328 22.8352 26.5125 22.8352 26.3205 22.6432C26.1281 22.4445 26.1281 22.1305 26.3205 21.9384L29.7156 18.5495L26.7819 15.6154L23.3864 19.0043C23.1944 19.2029 22.8803 19.2029 22.6883 19.0043C22.496 18.8119 22.496 18.4982 22.6883 18.3061L26.0835 14.9107L23.9502 12.7839C22.8741 11.7014 21.1124 11.7014 20.0361 12.7839L12.7844 20.0357C11.7016 21.1119 11.7016 22.8736 12.7842 23.9497Z" fill="#00A3FF"/>
<path d="M0.000234604 2.42007C-0.00224781 1.80011 0.236465 1.17766 0.706844 0.707203C1.65 -0.235877 3.18959 -0.235877 4.13275 0.707203L5.13524 1.7097L6.06743 2.62531C6.1403 2.59937 6.21286 2.5731 6.28669 2.54996C8.25925 1.92527 10.604 2.29964 12.6069 3.61004C12.7274 3.68763 12.8472 3.77396 12.9663 3.8606C12.9876 3.87405 13.0098 3.88999 13.0308 3.90288L13.0293 3.9044C13.0326 3.90688 13.0365 3.90905 13.0399 3.91193L9.90558 7.04627L7.04599 9.90586L3.91165 13.0401C3.80627 12.8975 3.70337 12.7523 3.60984 12.6072C2.24538 10.5258 1.90161 8.07623 2.62792 6.05394L0.706923 4.13303C0.236383 3.66257 -0.00232792 3.04012 0.000234604 2.42007Z" fill="#00A3FF"/>
<path d="M15.1468 3.57721L15.1718 3.55214L15.1808 3.54301L18.8237 7.18561L7.18532 18.8242L3.55922 15.1981L3.55177 15.1903L3.54273 15.1812L15.1468 3.57721Z" fill="#00A3FF"/>
</g>
<defs>
<clipPath id="clip0_1_3">
<rect width="41" height="41" fill="white" transform="matrix(-1 0 0 1 41 0)"/>
</clipPath>
</defs>
</svg>
