<svg width="53" height="38" viewBox="0 0 53 38" fill="none" xmlns="http://www.w3.org/2000/svg">
<g clip-path="url(#clip0_1_35)">
<path d="M3.12703 0H49.8773C50.7356 0 51.512 0.345843 52.0813 0.909438L52.0856 0.913708C52.6506 1.47303 53.0043 2.24584 53.0043 3.09551V18.9061C53.0043 24.1578 50.8348 28.9312 47.3368 32.3939C43.8389 35.8481 39.0168 38 33.7116 38H19.2884C13.9832 38 9.16113 35.8524 5.66317 32.3897C2.16951 28.9312 0 24.1535 0 18.9018V3.09551C0 2.24584 0.353678 1.47303 0.918701 0.913708H0.923014L0.918701 0.909438C1.48372 0.345843 2.2644 0 3.12703 0ZM50.4682 18.7822C45.7884 19.4099 41.7341 21.3355 38.7968 24.2901C35.9674 27.1337 34.1602 30.9508 33.8065 35.4937C38.3741 35.4681 42.5277 33.6065 45.5426 30.622C48.579 27.6162 50.4682 23.4661 50.4682 18.9061V18.7822ZM31.2833 35.4937C31.6456 30.2506 33.7245 25.8357 36.9982 22.5396C40.4056 19.1153 45.0897 16.9121 50.4682 16.2589V12.8431H41.3243C39.9829 12.8431 38.8874 11.7587 38.8874 10.4308V8.01416C38.8874 6.68629 39.9829 5.59753 41.3286 5.59753H50.4725V3.09124C50.4725 2.92899 50.4078 2.78382 50.3 2.67708C50.1921 2.57034 50.0455 2.50629 49.8816 2.50629H3.12703C2.96314 2.50629 2.81649 2.57461 2.70866 2.68135L2.70435 2.67708C2.59652 2.78382 2.53182 2.93326 2.53182 3.09551V5.6018H11.6153C12.9567 5.6018 14.0566 6.68629 14.0566 8.01843V10.4351C14.0566 11.7629 12.961 12.8474 11.6196 12.8474H2.53182V16.2631C7.91032 16.9164 12.5987 19.1153 16.0018 22.5438C19.2798 25.84 21.3587 30.2548 21.7167 35.498H31.2833V35.4937ZM19.1892 35.4937C18.8355 30.9508 17.0283 27.1337 14.1989 24.2901C11.2616 21.3355 7.20728 19.4099 2.52751 18.7822V18.9018C2.52751 23.4618 4.41235 27.6119 7.45313 30.6178C10.4723 33.6065 14.6216 35.4638 19.1892 35.4937Z" fill="#FF9898"/>
</g>
<defs>
<clipPath id="clip0_1_35">
<rect width="53" height="38" fill="white"/>
</clipPath>
</defs>
</svg>
