<svg width="66" height="82" viewBox="0 0 66 82" fill="none" xmlns="http://www.w3.org/2000/svg">
<path d="M41.0935 22.8101C49.3055 22.8101 56.522 29.8196 59.3757 37.4318C61.4249 42.8978 60.2686 51.3075 58.7228 56.8055C54.8125 70.7129 39.0201 77.7667 25.4231 76.7641C19.9573 76.3611 12.7308 67.429 11.0585 62.6542C9.28317 57.5853 5.83499 53.3479 5.83499 47.8132C5.83499 40.715 6.77552 33.5831 13.0173 29.3898M31.6664 64.2626C33.6742 64.0377 34.882 61.8555 36.8898 61.6307C38.9259 61.4027 40.4445 60.3147 42.6212 60.3147C45.0053 60.3147 47.7681 59.8499 49.9486 60.8265C51.5386 61.5386 52.7561 63.0124 54.5191 63.6046M30.6154 2.0001C35.1102 2.0001 38.7044 1.95899 42.915 3.52281C46.2249 4.75211 50.0077 7.5113 52.6115 9.91816C54.7785 11.9213 57.1191 13.4192 58.1431 16.3474C59.1719 19.2897 61.8937 21.8768 62.2429 25.1452C62.606 28.5436 64 31.61 64 35.2289V47.0721C64 51.4758 63.7136 55.2644 62.7961 59.5583C62.4269 61.2858 61.6617 63.3183 61.0715 65.0062C60.6142 66.3139 59.9001 70.3906 59.9001 68.9991M23.4004 36.012C19.2411 35.564 10.3563 25.7232 10.3563 21.786C10.3563 20.0712 9.70414 18.2763 9.70414 16.4117C9.70414 14.2941 11.1055 13.3955 11.6245 11.6345C12.1304 9.91802 13.5309 9.01799 14.7768 8.05168C16.3339 6.84412 17.5193 7.49571 19.1611 6.61151C24.2594 3.86568 36.5977 1.8668 37.0966 10.089C37.3352 14.0212 39.0533 17.4363 39.0533 21.4698C39.0533 25.7184 37.7901 28.3049 36.4444 32.2184M11.2417 28.9878C3.01945 37.2736 1.55773 47.7655 2.10064 59.2547C2.40881 65.7762 8.22365 71.7481 13.527 74.7172C15.142 75.6213 16.3441 77.1103 17.8074 77.9705C19.0203 78.6835 20.2046 78.6749 21.3623 79.323C22.8698 80.167 30.7887 80.3929 31.4828 78.994M10.4055 60.3147C10.7362 57.3162 15.5904 55.7089 17.9143 55.7089C20.5888 55.7089 26.298 55.1661 28.0348 57.3538C29.9527 59.7697 31.9524 61.6207 31.9524 64.9205C31.9524 68.6027 32.1926 71.6743 30.6465 74.7902" stroke="#AF49FF" stroke-width="3" stroke-linecap="round"/>
</svg>
