<svg width="68" height="81" viewBox="0 0 68 81" fill="none" xmlns="http://www.w3.org/2000/svg">
<path d="M40.712 22.1518C48.924 22.1518 56.1405 29.1613 58.9942 36.7735C61.0434 42.2396 59.8871 50.6493 58.3413 56.1473C54.431 70.0547 38.7155 76.3444 25.1185 75.3418C19.6527 74.9388 10.1723 67.2748 8.5 62.5C6.72469 57.4311 5.45349 52.6897 5.45349 47.1549C5.45349 40.0568 6.39402 32.9249 12.6358 28.7316M31.2849 63.6043C33.2927 63.3795 36.1106 60.3931 38.1185 60.1682C40.1546 59.9403 40.4418 59.6565 42.6185 59.6565C45.0026 59.6565 47.1699 59.6565 49.6185 60.1682C51.2085 60.8804 52.3746 62.3541 54.1376 62.9464M26.6185 3.55689C30.6185 2.0569 38.3229 1.30076 42.5335 2.86458C45.8434 4.09389 49.6262 6.85307 52.23 9.25993C54.397 11.2631 60.9761 17.8834 62 20.8116C63.1714 22.3117 61.5 20 63 22.5C64.5 25 66 38.3811 66 42L65.3185 47.5963L66 44.5M52.5 67.5C52.5 68.8915 57.5 65.5 58.9942 64.2623C60.4885 63.0246 61.0916 61.5 62 58.9001C64.5854 51.5 65.5 48 65.5 45.5V43M23.0189 35.3538C18.8596 34.9058 9.32264 25.2791 9.32264 21.3419C8.61847 19.3419 8.9143 17.4303 9.11847 15.8419C9.38844 13.7416 9.45585 13.6027 9.97484 11.8418C10.4807 10.1253 12.8725 7.80809 14.1185 6.84177C15.6755 5.63421 15.8911 5.72598 17.5328 4.84177C22.6311 2.09594 37.6196 3.11958 38.1185 11.3418C38.1185 11.9236 39.1185 15.8418 38.6718 20.8116C38.6718 25.0602 37.4086 27.6467 36.0629 31.5602M10.8602 28.3296C2.63795 36.6153 1.57555 47.4109 2.11846 58.9001C2.42663 65.4216 5.55687 72.3727 10.8602 75.3418C12.3602 76.1815 14.5022 77.7797 17.5328 77.7797C18.7457 78.4927 12.9608 76.3288 14.1185 76.9769C15.626 77.8208 30.4072 79.7346 31.1013 78.3358M9.73455 59.6565C10.0652 56.6579 15.2089 55.0507 17.5328 55.0507C20.2073 55.0507 26.3817 55.654 28.1185 57.8418C30.0363 60.2576 31.5709 60.9624 31.5709 64.2623C31.5709 67.9445 31.8111 71.0161 30.265 74.132M66 44.5L64.935 49.5L65.5 43M66 44.5L65.5 43" stroke="#AF49FF" stroke-width="3" stroke-linecap="round"/>
<path d="M65.1877 33.9718C65.1877 36.287 65.1877 38.6023 65.1877 40.9175C65.1877 42.2039 65.3267 43.4655 65.3267 44.7762C65.3267 45.3885 65.3267 46.0007 65.3267 46.613C65.3267 47.259 65.0488 47.8529 65.0488 48.4189" stroke="#AF49FF" stroke-width="3" stroke-linecap="round"/>
<path d="M20.0406 78.2854C20.6488 78.2854 21.8074 78.6468 22.3327 78.3549C22.8668 78.0582 24.0471 78.1465 24.6557 78.1465C25.4583 78.1465 26.2609 78.1465 27.0635 78.1465C27.8029 78.1465 28.9281 78.2913 29.5177 77.7606C29.7868 77.5184 30.2255 77.5509 30.5287 77.3825C30.8215 77.2198 31.211 76.9891 31.5088 76.904C31.8468 76.8074 32.0562 76.4989 32.404 76.4795C32.4613 76.4764 33.668 75.9162 32.9597 76.3098C32.3032 76.6745 31.5199 77.0577 30.9531 77.5214C30.0902 78.2275 31.8803 77.3558 32.2651 77.313C32.9603 77.2358 33.7025 76.5352 34.4105 76.3329C35.0717 76.144 35.9184 75.9054 36.5714 75.6152C37.4206 75.2378 38.3038 74.9884 39.1491 74.6042C40.1043 74.17 41.095 73.6733 42.0971 73.3154C42.8537 73.0452 43.7797 72.451 44.559 72.451C45.2302 72.451 45.9013 71.7561 46.5424 71.5095C47.0023 71.3326 47.3784 70.9448 47.8235 70.7223C48.3624 70.4529 48.94 70.3556 49.4905 70.1589C50.235 69.893 50.7669 69.1735 51.4352 68.8393" stroke="#AF49FF" stroke-width="3" stroke-linecap="round"/>
<path d="M52.8244 68.8392C51.7101 68.8392 50.9643 70.2141 49.9689 70.4985C49.3807 70.6666 48.9378 71.3073 48.3791 71.5867C48.2565 71.648 47.5834 72.0757 47.6923 71.6947C47.7845 71.372 46.7501 72.0086 46.581 72.1037C45.546 72.6859 44.6484 73.328 43.6561 73.9482C42.5797 74.6209 41.3426 74.8221 40.1832 75.3373C39.6733 75.564 39.2548 75.9239 38.6552 75.9239C38.2548 75.9239 37.8561 76.1232 37.4667 76.194C37.2373 76.2357 36.5914 76.0726 36.4325 76.2712C36.0849 76.7057 35.1559 76.8963 34.6266 76.8963C34.0145 76.8963 33.4289 77.2125 32.8902 77.4519C32.375 77.6809 30.7289 78.0076 31.2927 78.0076C31.5956 78.0076 33.1068 78.1465 32.4735 78.1465C32.2823 78.1465 31.8385 78.2388 31.7403 78.4243C31.5403 78.802 31.9119 78.9758 32.0953 78.5632C32.208 78.3096 32.298 77.9684 32.6201 77.8764C32.8495 77.8109 33.3549 77.9997 33.5153 77.7992C33.6259 77.661 34.7609 77.3838 34.9816 77.3207C35.1924 77.2605 35.5316 77.1741 35.738 77.1741C36.0192 77.1741 36.1833 76.9109 36.4325 76.8963C36.9445 76.8662 37.4044 76.3507 37.8988 76.2094C38.4836 76.0423 38.8923 75.4428 39.4886 75.3682C40.5603 75.2343 41.6808 74.4875 42.7531 74.2492C44.0281 73.9658 45.215 73.101 46.3649 72.5899C47.4051 72.1276 48.8123 72.1338 49.6602 71.3706C49.9993 71.0654 50.9535 70.6339 51.3735 70.5139C51.9969 70.3358 52.2849 69.7114 52.8244 69.4258C53.7664 68.9271 54.6174 68.0804 55.3557 67.3421C55.7275 66.9702 55.9785 66.3716 56.3667 66.061C56.5047 65.9506 57.1307 64.9714 57.1307 65.0886" stroke="#AF49FF" stroke-width="3" stroke-linecap="round"/>
<path d="M9.34424 59.9487C9.34424 61.0524 9.20532 62.0242 9.20532 63.1438" stroke="#AF49FF" stroke-width="3" stroke-linecap="round"/>
<path d="M65.6045 44.946C65.6045 44.5524 65.6045 44.1588 65.6045 43.7653C65.6045 43.265 65.5654 43.418 66.0212 43.418" stroke="#AF49FF" stroke-width="3" stroke-linecap="round"/>
<path d="M9.11401 61.7646C9.11401 62.3559 9.2543 62.8623 9.2543 63.4479" stroke="#AF49FF" stroke-width="3" stroke-linecap="round"/>
<path d="M31.6994 63.8688C31.6994 63.1427 31.1413 62.7527 30.8577 62.1854" stroke="#AF49FF" stroke-width="3" stroke-linecap="round"/>
<path d="M31.4188 62.7465C31.2327 62.7233 31.074 62.3376 30.9979 62.1854" stroke="#AF49FF" stroke-width="3" stroke-linecap="round"/>
<path d="M30.8577 61.2034H30.7174" stroke="#AF49FF" stroke-width="3" stroke-linecap="round"/>
<path d="M63.1623 24.2284C62.6375 24.17 62.0515 23.1436 61.822 22.7304C61.2134 21.6348 62.1848 23.031 62.2162 23.2823C62.2872 23.8502 62.8469 24.3264 62.8469 24.9379C62.8469 25.651 63.32 26.2701 63.32 27.0665" stroke="#AF49FF" stroke-linecap="round"/>
<path d="M30.9363 79.3271C30.7784 79.3469 30.4962 79.7016 30.5074 79.693C30.8819 79.4016 30.9363 80.0412 30.9363 79.8506C30.9363 79.7549 30.7482 79.8948 30.6524 79.8948C30.4782 79.8948 30.3278 79.9097 30.5957 79.8948C30.9105 79.8773 31.2191 79.7813 31.5607 79.7813C32.1888 79.7813 32.7036 79.3957 33.3205 79.3271C33.8612 79.267 34.3901 78.79 34.9099 78.7595C35.3516 78.7335 35.9884 78.4899 36.2723 78.135C36.391 77.9866 36.8855 78.0303 37.0671 77.9395C37.3127 77.8167 37.5573 77.5895 37.8113 77.5169C38.2693 77.3861 38.9802 77.2744 39.3629 76.9682C39.6343 76.7511 40.5833 76.4888 40.9272 76.4888" stroke="#AF49FF" stroke-linecap="round"/>
<path d="M40.7001 76.6023C40.9271 76.574 41.0627 76.2617 41.3246 76.2617C41.6995 76.2617 41.7528 76.1104 42.0625 75.9464C42.6134 75.6547 43.1459 75.333 43.7655 75.1264" stroke="#AF49FF" stroke-linecap="round"/>
</svg>
