<svg width="54" height="43" viewBox="0 0 54 43" fill="none" xmlns="http://www.w3.org/2000/svg">
<path d="M19.9459 0.0225029C15.4658 0.286346 11.3763 1.87468 7.75635 4.75585C6.95426 5.39436 5.32899 7.03018 4.64827 7.88504C2.09954 11.0723 0.585083 14.7291 0.0943341 18.8345C-0.0323107 19.9427 -0.0323107 22.3806 0.099611 23.4518C0.410946 26.0111 1.03362 28.1271 2.13648 30.3909C3.18658 32.5386 4.44775 34.3063 6.1469 36.016C6.6271 36.4962 7.2656 37.0925 7.5611 37.3458C11.6823 40.7599 16.7956 42.4749 22.12 42.2322C23.2123 42.1847 23.6978 42.1319 24.7637 41.9472C27.6924 41.4406 30.4838 40.3008 33.0167 38.5806C34.2357 37.7521 35.8187 36.396 36.014 36.0055C36.2039 35.6361 36.1248 35.0556 35.8398 34.7548C35.6499 34.549 35.4493 34.4752 34.5734 34.2852C32.0141 33.7364 29.6131 32.6969 27.5974 31.2668L27.0697 30.8922H25.3547L23.6397 30.8975L23.9563 31.1877C26.3467 33.3829 28.943 34.9184 31.898 35.8841C32.2305 35.9896 32.526 36.0952 32.5471 36.1163C32.5682 36.1374 32.3043 36.3537 31.9508 36.5965C29.1013 38.5753 26.0724 39.6729 22.6107 39.9737C21.7295 40.0528 19.661 40.0053 18.8114 39.8892C15.1334 39.3932 12.0623 38.0793 9.17582 35.7786C8.44761 35.1981 7.00703 33.7364 6.37908 32.9502C4.08365 30.0584 2.76443 26.8712 2.3159 23.1352C2.21036 22.2592 2.19453 20.2593 2.28951 19.3622C2.76971 14.745 4.70632 10.7345 7.99908 7.54204C10.933 4.69781 14.6901 2.8984 18.8114 2.36543C19.5449 2.27045 22.1886 2.19657 22.1886 2.27045C22.1886 2.29683 21.9828 2.57651 21.7348 2.8984C19.872 5.27826 18.5159 8.16999 17.8404 11.2253L17.8088 11.3678L18.9539 11.3572L20.0989 11.3414L20.3153 10.5762C21.149 7.62647 22.6529 5.0197 24.827 2.74537C25.5922 1.94856 25.7082 1.73748 25.6555 1.2784C25.5974 0.819309 25.2914 0.465759 24.827 0.339115C23.9458 0.101658 21.4287 -0.0619278 19.9459 0.0225029Z" fill="#AF49FF"/>
<path d="M13.9725 13.8215C13.8036 13.9059 13.6506 14.0379 13.5556 14.1751C13.4184 14.3703 13.4026 14.4389 13.4026 14.803C13.4026 15.1724 13.4184 15.2304 13.5609 15.4362C13.6506 15.5576 13.8247 15.7159 13.9514 15.7845L14.1836 15.9059H19.1966H24.2096L22.9748 17.1565C22.2994 17.8478 19.9142 20.2593 17.6769 22.5178C15.2706 24.9452 13.5662 26.7076 13.4976 26.8395C13.3498 27.1034 13.334 27.5466 13.4606 27.8105C13.5767 28.0532 13.9092 28.3382 14.1519 28.4068C14.2891 28.4437 16.4157 28.4648 20.7955 28.4648H27.2333L27.5024 28.3329C28.315 27.9266 28.3203 26.7921 27.5182 26.3488C27.4074 26.2855 26.4734 26.2696 22.2677 26.2485L17.1492 26.2222L20.2098 23.1352C21.8931 21.436 24.2941 19.014 25.5447 17.7528C27.1541 16.1328 27.8507 15.3993 27.9087 15.2515C28.0828 14.8347 27.972 14.3017 27.6449 13.9957C27.2966 13.6738 27.7135 13.6896 20.6688 13.6896H14.2416L13.9725 13.8215Z" fill="#AF49FF"/>
<path d="M31.5022 18.2857C31.4125 18.3121 31.2437 18.4124 31.1223 18.5179C30.5366 19.0192 30.6368 19.9638 31.3123 20.3226L31.5444 20.444H34.2831C35.787 20.444 37.0166 20.4598 37.0166 20.4862C37.0166 20.5073 35.6393 21.9162 33.9612 23.6207C31.8716 25.7314 30.8743 26.7762 30.8215 26.9081C30.5735 27.4939 30.9218 28.2432 31.5128 28.4068C31.6447 28.4437 33.1381 28.4648 35.8873 28.4648H40.0666L40.3463 28.3171C41.0059 27.9741 41.1483 27.1351 40.6365 26.5757C40.3621 26.2696 40.4518 26.2749 37.3701 26.2485L34.5259 26.2222L37.597 23.1246C39.8238 20.8714 40.6893 19.9638 40.7631 19.8002C41.0375 19.1986 40.7104 18.4757 40.0824 18.2857C39.8344 18.2171 31.7502 18.2119 31.5022 18.2857Z" fill="#AF49FF"/>
<path d="M44.3989 18.3702C44.0876 18.5285 43.9082 18.7501 43.8185 19.0878C43.7024 19.5205 43.8554 19.9269 44.2617 20.254L44.4675 20.4176L47.2854 20.4334C48.8368 20.4387 50.1032 20.4598 50.1032 20.4809C50.1032 20.4968 48.726 21.8951 47.0426 23.589C45.3593 25.2881 43.9504 26.7393 43.9029 26.8237C43.6232 27.3725 43.8396 28.0374 44.4042 28.3223L44.6892 28.4648L48.9687 28.4543L53.2482 28.4384L53.4699 28.2907C54.0556 27.9055 54.177 27.1456 53.7284 26.639C53.644 26.5335 53.4804 26.4068 53.3696 26.3488C53.1796 26.2538 53.0372 26.2485 50.3935 26.2485C48.8526 26.2485 47.6231 26.2274 47.6337 26.201C47.6442 26.1799 49.0162 24.7763 50.6837 23.0877C52.3512 21.3991 53.7601 19.9374 53.8076 19.8477C53.9184 19.6419 53.929 19.1353 53.834 18.8979C53.7337 18.6657 53.3749 18.3543 53.1269 18.2857C52.995 18.2488 51.5491 18.2277 48.8051 18.2277H44.6892L44.3989 18.3702Z" fill="#AF49FF"/>
</svg>
